<?xml version="1.0" standalone="no"?>
<!DOCTYPE svg PUBLIC "-//W3C//DTD SVG 20010904//EN"
 "http://www.w3.org/TR/2001/REC-SVG-20010904/DTD/svg10.dtd">
<svg version="1.0" xmlns="http://www.w3.org/2000/svg"
 width="170.000000pt" height="170.000000pt" viewBox="0 0 170.000000 170.000000"
 preserveAspectRatio="xMidYMid meet">
<metadata>
Created by potrace 1.14, written by Peter Selinger 2001-2017
</metadata>
<g transform="translate(0.000000,170.000000) scale(0.100000,-0.100000)"
fill="#000000" stroke="none">
<path d="M900 1269 c0 -26 4 -29 31 -29 27 0 30 3 27 28 -2 22 -8 27 -30 28
-24 1 -28 -3 -28 -27z"/>
<path d="M970 1200 c0 -28 3 -31 27 -28 22 2 28 8 28 28 0 20 -6 26 -28 28
-24 3 -27 0 -27 -28z"/>
<path d="M1054 1141 c-2 -2 -4 -35 -4 -73 l0 -68 74 0 74 0 -1 73 -2 72 -68 0
c-38 0 -71 -2 -73 -4z"/>
<path d="M37 1085 c-25 -18 -34 -49 -31 -110 4 -93 7 -94 227 -93 l182 0 3
-54 3 -54 -178 0 c-137 1 -177 4 -176 14 2 6 0 12 -5 13 -4 0 -14 2 -23 4 -28
5 -42 -11 -35 -39 11 -43 33 -47 243 -47 236 0 233 -1 236 105 2 59 -1 71 -20
90 -20 20 -33 21 -195 23 -95 1 -179 2 -185 2 -9 1 -13 18 -13 51 l0 50 175 0
c135 0 174 -3 172 -12 -1 -8 11 -14 32 -16 32 -3 33 -2 27 25 -14 56 -19 57
-230 58 -119 0 -200 -3 -209 -10z"/>
<path d="M567 1088 c-16 -10 -18 -345 -2 -358 17 -14 554 -15 569 0 16 16 17
237 1 244 -24 9 -32 -11 -32 -84 -1 -41 -1 -87 -2 -102 l-1 -28 -250 0 -250 0
-1 28 c-1 29 -1 188 0 237 l1 30 211 -1 c170 0 212 2 216 13 3 8 2 17 -2 21
-9 9 -443 10 -458 0z"/>
<path d="M1261 1088 c-30 -11 -39 -36 -37 -106 1 -83 22 -102 104 -101 32 1
114 1 184 0 l126 -1 -1 -52 -2 -53 -173 -1 c-152 -2 -174 0 -180 15 -4 9 -19
16 -34 16 -24 1 -28 -3 -28 -27 0 -57 25 -61 353 -59 114 1 127 12 127 110 0
62 -3 72 -25 89 -22 18 -40 19 -192 18 -92 -1 -175 2 -184 6 -12 5 -16 19 -15
50 l2 43 172 3 c149 2 172 0 172 -13 0 -21 56 -20 64 1 7 19 -1 34 -28 54 -17
12 -58 15 -203 15 -100 1 -191 -2 -202 -7z"/>
<path d="M937 965 c-2 -5 -3 -26 -3 -45 1 -35 1 -35 46 -35 l45 0 0 44 0 45
-42 0 c-24 1 -44 -3 -46 -9z"/>
<path d="M810 683 c0 -20 -4 -23 -32 -22 -49 3 -58 0 -58 -15 0 -10 27 -13
130 -13 100 1 130 4 130 14 0 12 -30 18 -72 14 -13 -2 -18 5 -18 23 0 24 -3
26 -40 24 -35 -1 -40 -4 -40 -25z"/>
<path d="M388 542 c-20 -4 -30 -30 -30 -78 0 -53 15 -64 88 -64 52 0 65 3 74
19 13 26 13 31 -5 31 -8 0 -15 -7 -15 -15 0 -11 -12 -15 -44 -15 -64 0 -76 7
-76 44 0 48 12 59 64 59 33 0 50 -5 60 -18 8 -11 16 -14 19 -8 4 6 0 18 -7 29
-13 17 -79 26 -128 16z"/>
<path d="M761 540 c-3 -3 -6 -34 -6 -70 l0 -65 67 -3 c57 -2 70 0 88 18 40 40
19 119 -33 121 -12 0 -42 1 -65 2 -24 1 -47 0 -51 -3z m139 -50 c4 -14 4 -35
-1 -47 -7 -18 -15 -21 -63 -21 l-56 1 0 49 0 49 57 -3 c51 -3 57 -5 63 -28z"/>
<path d="M977 542 c-14 -3 -17 -16 -17 -73 l0 -69 70 0 c40 0 70 4 70 10 0 10
-14 12 -81 12 -30 0 -35 3 -34 21 1 18 8 22 46 23 64 2 73 3 65 12 -4 4 -29 8
-54 8 -60 2 -59 1 -59 19 0 12 13 15 59 15 32 0 58 4 58 10 0 6 -6 10 -12 11
-65 3 -97 4 -111 1z"/>
<path d="M1381 542 c-8 -3 2 -19 29 -47 23 -24 42 -46 41 -49 -4 -23 1 -46 9
-46 6 0 10 13 10 28 0 19 13 42 39 69 26 29 34 43 25 47 -7 3 -26 -11 -43 -30
l-30 -34 -34 33 c-18 18 -39 31 -46 29z"/>
<path d="M191 473 c-24 -41 -36 -70 -30 -72 7 -2 16 4 21 13 12 22 116 23 124
1 6 -15 35 -22 33 -7 -2 19 -78 127 -91 130 -11 2 -30 -20 -57 -65z m77 12
c16 -35 16 -35 -23 -35 -40 0 -41 2 -19 35 21 31 28 31 42 0z"/>
<path d="M582 473 c-23 -39 -36 -70 -30 -72 6 -2 17 4 23 13 17 22 102 22 127
-1 32 -29 29 -8 -9 60 -22 39 -45 67 -54 67 -10 0 -33 -28 -57 -67z m76 12
c16 -35 16 -35 -23 -35 -40 0 -41 2 -19 35 21 31 28 31 42 0z"/>
<path d="M1130 469 c0 -52 3 -70 13 -66 8 2 12 22 11 55 -1 29 0 52 2 52 2 0
19 -25 39 -55 21 -30 41 -55 46 -55 5 0 25 25 45 55 20 30 38 55 40 55 2 0 3
-15 2 -32 -1 -57 2 -78 12 -78 6 0 10 30 10 70 0 60 -2 70 -17 70 -10 0 -33
-22 -52 -50 -19 -28 -37 -50 -41 -50 -4 0 -22 22 -41 50 -19 28 -42 50 -51 50
-16 0 -18 -10 -18 -71z"/>
</g>
</svg>
